<?xml version="1.0" encoding="utf-8"?>
<!-- Generator: Adobe Illustrator 28.1.0, SVG Export Plug-In . SVG Version: 6.00 Build 0)  -->
<svg version="1.1" id="Layer_1" xmlns="http://www.w3.org/2000/svg" xmlns:xlink="http://www.w3.org/1999/xlink" x="0px" y="0px"
	 viewBox="0 0 25 25" style="enable-background:new 0 0 25 25;" xml:space="preserve">
<style type="text/css">
	.st0{clip-path:url(#SVGID_00000160903837223821931470000008554748063769760910_);}
	.st1{fill:#FFFFFF;}
</style>
<g>
	<defs>
		<rect id="SVGID_1_" x="0.4" y="0.4" width="24" height="24"/>
	</defs>
	<clipPath id="SVGID_00000083048371858170609940000000996737605893391005_">
		<use xlink:href="#SVGID_1_"  style="overflow:visible;"/>
	</clipPath>
	<g style="clip-path:url(#SVGID_00000083048371858170609940000000996737605893391005_);">
		<path class="st1" d="M21.4,24.4h-2v-5c0-0.8-0.3-1.5-0.9-2.1c-0.6-0.6-1.3-0.9-2.1-0.9H8.4c-0.8,0-1.5,0.3-2.1,0.9
			c-0.6,0.6-0.9,1.3-0.9,2.1v5h-2v-5c0-1.3,0.5-2.6,1.5-3.5c0.9-0.9,2.2-1.5,3.5-1.5h8.1c1.3,0,2.6,0.5,3.5,1.5
			c0.9,0.9,1.5,2.2,1.5,3.5V24.4z"/>
		<path class="st1" d="M12.4,12.4c-1.2,0-2.3-0.4-3.3-1c-1-0.7-1.8-1.6-2.2-2.7C6.4,7.6,6.3,6.4,6.6,5.2C6.8,4,7.4,3,8.2,2.1
			c0.8-0.8,1.9-1.4,3.1-1.6s2.4-0.1,3.5,0.3c1.1,0.5,2,1.2,2.7,2.2c0.7,1,1,2.1,1,3.3c0,1.6-0.6,3.1-1.8,4.2
			C15.6,11.7,14,12.4,12.4,12.4z M12.4,2.4c-0.8,0-1.6,0.2-2.2,0.7C9.6,3.5,9.1,4.1,8.7,4.8C8.4,5.6,8.4,6.4,8.5,7.1s0.5,1.5,1.1,2
			c0.6,0.6,1.3,0.9,2,1.1c0.8,0.2,1.6,0.1,2.3-0.2c0.7-0.3,1.4-0.8,1.8-1.5s0.7-1.4,0.7-2.2c0-1.1-0.4-2.1-1.2-2.8
			C14.5,2.8,13.5,2.4,12.4,2.4z"/>
	</g>
</g>
</svg>
