<?xml version="1.0" encoding="utf-8"?>
<!-- Generator: Adobe Illustrator 28.0.0, SVG Export Plug-In . SVG Version: 6.00 Build 0)  -->
<svg version="1.1" id="Layer_1" xmlns="http://www.w3.org/2000/svg" xmlns:xlink="http://www.w3.org/1999/xlink" x="0px" y="0px"
	 viewBox="0 0 20 21" style="enable-background:new 0 0 20 21;" xml:space="preserve">
<style type="text/css">
	.st0{clip-path:url(#SVGID_00000058579631300398863030000007216730002244816314_);}
	.st1{fill:#3BB77E;}
</style>
<g>
	<defs>
		<rect id="SVGID_1_" y="0.5" width="20" height="20"/>
	</defs>
	<clipPath id="SVGID_00000002354415373333810440000008751761513958361987_">
		<use xlink:href="#SVGID_1_"  style="overflow:visible;"/>
	</clipPath>
	<g style="clip-path:url(#SVGID_00000002354415373333810440000008751761513958361987_);">
		<path class="st1" d="M13.7,3.9c-1-0.8-2-1.7-3.1-2.8L10,0.6L9.4,1.1C7.5,3,6.7,5.9,6.3,7.6C6,7.2,5.8,6.7,5.6,6.2L5.3,4.8l-1,1
			c-1.8,1.7-3,3.4-3,6c0,1.9,0.6,3.8,1.8,5.3c1.2,1.5,2.8,2.6,4.7,3.1c0.6,0.1,1.1,0.2,1.7,0.2c0.2,0,0.4,0,0.5,0c0.1,0,0.2,0,0.3,0
			c2.3-0.1,4.4-1,6-2.6s2.5-3.8,2.5-6.1C18.8,8.2,16.4,6.2,13.7,3.9z M10.2,18.9c-0.1,0-0.2,0-0.3,0c-0.8,0-1.5-0.3-2-0.9
			c-0.5-0.5-0.8-1.3-0.8-2c0-1.1,0.6-1.6,1.8-2.7c0.3-0.3,0.7-0.6,1-0.9c0.3,0.3,0.6,0.6,0.9,0.8c1.3,1.1,2,1.7,2,2.8
			c0,0.7-0.3,1.4-0.8,2C11.6,18.5,10.9,18.8,10.2,18.9z M14.4,17.4L14.4,17.4c0.1-0.4,0.2-0.9,0.2-1.4c0-1.9-1.2-2.9-2.5-4.1
			c-0.5-0.4-0.9-0.8-1.4-1.3L10,10.1l-0.6,0.6c-0.5,0.5-1.1,1-1.5,1.4c-1.3,1.1-2.4,2.1-2.4,3.9c0,0.5,0.1,1,0.2,1.5
			c-0.9-0.7-1.6-1.5-2.1-2.5s-0.7-2.1-0.7-3.2c0-1.5,0.6-2.9,1.6-3.9c0.2,0.4,0.4,0.7,0.6,1c0.2,0.2,0.4,0.4,0.7,0.5
			c0.3,0.1,0.6,0.1,0.9,0.1C7,9.4,7.2,9.3,7.4,9c0.2-0.2,0.4-0.5,0.4-0.8c0.3-1.9,1.1-3.7,2.2-5.3c0.9,0.8,1.8,1.6,2.5,2.2
			c2.6,2.2,4.5,3.8,4.5,6.6c0,1.1-0.2,2.1-0.7,3.1S15.2,16.7,14.4,17.4L14.4,17.4z"/>
	</g>
</g>
</svg>
