<?xml version="1.0" encoding="utf-8"?>
<!-- Generator: Adobe Illustrator 28.1.0, SVG Export Plug-In . SVG Version: 6.00 Build 0)  -->
<svg version="1.1" id="Layer_1" xmlns="http://www.w3.org/2000/svg" xmlns:xlink="http://www.w3.org/1999/xlink" x="0px" y="0px"
	 viewBox="0 0 70 70" style="enable-background:new 0 0 70 70;" xml:space="preserve">
<style type="text/css">
	.st0{clip-path:url(#SVGID_00000147922756014164022800000004803075251353057719_);}
	.st1{fill:#BC221A;}
</style>
<g>
	<defs>
		<rect id="SVGID_1_" width="69.2" height="69.2"/>
	</defs>
	<clipPath id="SVGID_00000009573335680683504020000012462496769028770206_">
		<use xlink:href="#SVGID_1_"  style="overflow:visible;"/>
	</clipPath>
	<g style="clip-path:url(#SVGID_00000009573335680683504020000012462496769028770206_);">
		<path class="st1" d="M44,5H34L22,17l6,3.5l6-6L46.5,27l4.5,5.5l6.5,1l3-5.5V9l-5-4H44z"/>
		<path d="M64.6,14.4h-2.7l0-4.8c0-3.2-2.6-5.9-5.9-5.9l-20.5,0c0,0,0,0,0,0c-1.2,0-2.3,0.5-3.1,1.3L1.7,35.6
			C0.6,36.7,0,38.2,0,39.7c0,1.6,0.6,3.1,1.7,4.2l19.9,19.9c1.1,1.1,2.7,1.7,4.2,1.7c1.5,0,3-0.6,4.2-1.7l19.3-19.3
			c0.5-0.5,0.5-1.4,0-1.9c-0.5-0.5-1.4-0.5-1.9,0L28,61.9c-1.2,1.2-3.3,1.2-4.5,0L3.6,42c-0.6-0.6-0.9-1.4-0.9-2.3
			c0-0.9,0.3-1.7,0.9-2.3L34.3,6.8c0.3-0.3,0.7-0.5,1.2-0.5h0l20.5,0c1.8,0,3.2,1.4,3.2,3.2l0,11.3h-6.1c-0.5,0-1-0.2-1.3-0.6
			c0.6-0.2,1.1-0.6,1.6-1.1c1.9-1.9,1.9-5.1,0-7c-1.9-1.9-5.1-1.9-7,0c-1.9,1.9-1.9,5.1,0,7c0.7,0.7,1.6,1.2,2.5,1.4
			c0.7,1.7,2.3,3,4.3,3h6.1l0,6.5c0,0.4-0.2,0.9-0.5,1.2L55,34.9c-0.5,0.5-0.5,1.4,0,1.9c0.5,0.5,1.4,0.5,1.9,0l3.7-3.7
			c0.8-0.8,1.3-1.9,1.3-3.1l0-6.5h2.7c2.5,0,4.6-2.1,4.6-4.6C69.2,16.4,67.1,14.4,64.6,14.4z M48.2,14.1c0.4-0.4,1-0.7,1.6-0.7
			c0.6,0,1.2,0.2,1.6,0.7c0.1,0.1,0.3,0.3,0.4,0.5c-1.5,0.5-2.6,1.6-3.1,3.1c-0.2-0.1-0.3-0.2-0.5-0.4C47.3,16.5,47.3,15,48.2,14.1z
			 M64.6,20.9h-2.7l0-3.8h2.7c1,0,1.9,0.8,1.9,1.9C66.5,20,65.6,20.9,64.6,20.9z"/>
		<path d="M21.8,37.7c0.2,0.6,0.7,1,1.3,1c0.1,0,0.2,0,0.4,0l13.9-3.9c0.7-0.2,1.1-0.9,0.9-1.7c-0.2-0.7-0.9-1.1-1.7-0.9l-13.9,3.9
			C22,36.3,21.6,37,21.8,37.7z"/>
		<path d="M27.9,39.5c-0.8,0.8-1.2,1.8-1.2,2.8c0,1.1,0.4,2.1,1.2,2.8c0.8,0.8,1.8,1.2,2.8,1.2c1,0,2-0.4,2.8-1.2
			c1.6-1.6,1.6-4.1,0-5.6S29.5,38,27.9,39.5z M31.6,43.3c-0.5,0.5-1.3,0.5-1.8,0c-0.2-0.2-0.4-0.6-0.4-0.9c0-0.3,0.1-0.7,0.4-0.9
			c0.3-0.2,0.6-0.4,0.9-0.4c0.3,0,0.7,0.1,0.9,0.4C32.1,41.9,32.1,42.8,31.6,43.3z"/>
		<path d="M34.2,31.5c1.6-1.6,1.6-4.1,0-5.6c-0.8-0.8-1.8-1.2-2.8-1.2c-1.1,0-2.1,0.4-2.8,1.2c-1.6,1.6-1.6,4.1,0,5.6
			c0.8,0.8,1.8,1.2,2.8,1.2C32.4,32.6,33.4,32.3,34.2,31.5z M30.5,27.8c0.2-0.2,0.6-0.4,0.9-0.4c0.3,0,0.7,0.1,0.9,0.4
			c0.5,0.5,0.5,1.3,0,1.8c-0.5,0.5-1.3,0.5-1.8,0C30,29.1,30,28.3,30.5,27.8z"/>
		<path d="M13.4,35c-0.5-0.5-1.4-0.5-1.9,0l-3.8,3.8c-0.3,0.3-0.4,0.6-0.4,1c0,0.4,0.1,0.7,0.4,1l17.1,17.1c0.3,0.3,0.6,0.4,1,0.4
			c0.3,0,0.7-0.1,1-0.4l25.6-25.6c0.5-0.5,0.5-1.4,0-1.9L35.2,13.2c-0.3-0.3-0.6-0.4-1-0.4c-0.4,0-0.7,0.1-1,0.4L19.2,27.3
			c-0.5,0.5-0.5,1.4,0,1.9c0.5,0.5,1.4,0.5,1.9,0L34.3,16l15.2,15.2L25.8,55L10.6,39.7l2.9-2.9C14,36.3,14,35.5,13.4,35z"/>
		<path d="M52.1,38.4c-0.4,0-0.7,0.1-1,0.4c-0.3,0.3-0.4,0.6-0.4,1c0,0.4,0.1,0.7,0.4,1c0.3,0.3,0.6,0.4,1,0.4c0.4,0,0.7-0.1,1-0.4
			c0.3-0.3,0.4-0.6,0.4-1c0-0.4-0.1-0.7-0.4-1C52.8,38.5,52.5,38.4,52.1,38.4z"/>
		<path class="st1" d="M17.3,33c0.3-0.3,0.4-0.6,0.4-1c0-0.4-0.1-0.7-0.4-1c-0.3-0.3-0.6-0.4-1-0.4c-0.4,0-0.7,0.1-1,0.4
			c-0.3,0.3-0.4,0.6-0.4,1c0,0.4,0.1,0.7,0.4,1c0.3,0.3,0.6,0.4,1,0.4C16.7,33.4,17,33.3,17.3,33z"/>
	</g>
</g>
</svg>
