<?xml version="1.0" encoding="utf-8"?>
<!-- Generator: Adobe Illustrator 28.1.0, SVG Export Plug-In . SVG Version: 6.00 Build 0)  -->
<svg version="1.1" id="Layer_1" xmlns="http://www.w3.org/2000/svg" xmlns:xlink="http://www.w3.org/1999/xlink" x="0px" y="0px"
	 viewBox="0 0 36 36" style="enable-background:new 0 0 36 36;" xml:space="preserve">
<path d="M31.5,18.6v-2.1c0-3.6-1.4-7-4-9.5c-2.5-2.5-6-4-9.5-4c-3.6,0-7,1.4-9.5,4c-2.5,2.5-4,6-4,9.5v2.1c-1.6,0.7-2.9,1.9-3.6,3.4
	c-0.8,1.5-1,3.3-0.7,5c0.4,1.7,1.3,3.2,2.6,4.3c1.3,1.1,3,1.7,4.7,1.7h3V18h-3v-1.5c0-2.8,1.1-5.5,3.1-7.4c2-2,4.6-3.1,7.4-3.1
	c2.8,0,5.5,1.1,7.4,3.1c2,2,3.1,4.6,3.1,7.4V18h-3v12h-6v3h9c1.7,0,3.4-0.6,4.7-1.7c1.3-1.1,2.3-2.6,2.6-4.3c0.4-1.7,0.1-3.4-0.7-5
	C34.4,20.5,33.1,19.3,31.5,18.6z M7.5,30c-1.2,0-2.3-0.5-3.2-1.3c-0.8-0.8-1.3-2-1.3-3.2s0.5-2.3,1.3-3.2c0.8-0.8,2-1.3,3.2-1.3V30z
	 M28.5,30v-9c1.2,0,2.3,0.5,3.2,1.3c0.8,0.8,1.3,2,1.3,3.2s-0.5,2.3-1.3,3.2C30.8,29.5,29.7,30,28.5,30z"/>
</svg>
